# xmcd
#
# Track frame offsets:
#	150
#	9683
#	23500
#	34200
#	46743
#	53600
#	67067
#	79769
#	93181
#	102577
#	114616
#	125104
#	141696
#
# Disc length: 1978 seconds
#
# Revision: 1
# Processed by: cddbd v1.5.2PL0 Copyright (c) Steve Scherf et al.
# Submitted via: audiograbber 1.83.01
#
DISCID=b307b80d
DTITLE=Riders of the Purple Sage - Best of the West Volume 1
DYEAR=2005
DGENRE=Country
TTITLE0=Happy Roving Cowboy
TTITLE1=Nobody Kisses Their Hourse Anymore
TTITLE2=Tumbling Tumbleweeds
TTITLE3=When the Bloom is on the Sage
TTITLE4=Texas Plains
TTITLE5=Back in the Saddle Again
TTITLE6=Yellow Rose of Texas
TTITLE7=Blue Shadows On The Trail
TTITLE8=Ride Cowboy Ride
TTITLE9=Ghost Riders
TTITLE10=Don't Fence Me In
TTITLE11=Cool Water
TTITLE12=When Payday Rolls Around
EXTD=
EXTT0=
EXTT1=
EXTT2=
EXTT3=
EXTT4=
EXTT5=
EXTT6=
EXTT7=
EXTT8=
EXTT9=
EXTT10=
EXTT11=
EXTT12=
PLAYORDER=
